<svg width="100%" height="100%" viewBox="0 0 64 64" fill="none" xmlns="http://www.w3.org/2000/svg">


<path d="M18.1059 32.2431C20.106 32.2431 21.7275 30.6217 21.7275 28.6215C21.7275 26.6214 20.106 25 18.1059 25C16.1058 25 14.4844 26.6214 14.4844 28.6215C14.4844 30.6217 16.1058 32.2431 18.1059 32.2431Z" fill="currentColor"></path>
<path d="M22.1359 35.2068C21.7551 34.2512 20.848 33.6349 19.8231 33.6349H16.3955C15.3706 33.6349 14.4566 34.2512 14.0827 35.2068L13.1755 37.4919C12.9955 37.942 12.954 38.4336 13.0509 38.9045C13.0786 39.0222 13.1825 39.1122 13.3071 39.1122H22.9184C23.043 39.1122 23.1469 39.0222 23.1746 38.9045C23.2716 38.4336 23.23 37.942 23.05 37.4919L22.1359 35.2068Z" fill="currentColor"></path>
<path d="M36.0197 35.2068C35.6389 34.2512 34.7317 33.6349 33.7069 33.6349H30.2792C29.2544 33.6349 28.3404 34.2512 27.9664 35.2068L27.0593 37.4919C26.8793 37.942 26.8377 38.4336 26.9347 38.9045C26.9624 39.0222 27.0663 39.1122 27.1909 39.1122H36.8091C36.9338 39.1122 37.0376 39.0222 37.0653 38.9045C37.1623 38.4336 37.1207 37.942 36.9407 37.4919L36.0197 35.2068Z" fill="currentColor"></path>
<path d="M45.8735 32.2431C47.8736 32.2431 49.495 30.6217 49.495 28.6215C49.495 26.6214 47.8736 25 45.8735 25C43.8734 25 42.252 26.6214 42.252 28.6215C42.252 30.6217 43.8734 32.2431 45.8735 32.2431Z" fill="currentColor"></path>
<path d="M49.9035 35.2068C49.5227 34.2512 48.6155 33.6349 47.5907 33.6349H44.163C43.1382 33.6349 42.2242 34.2512 41.8502 35.2068L40.9431 37.4919C40.7631 37.942 40.7215 38.4336 40.8185 38.9045C40.8462 39.0222 40.95 39.1122 41.0747 39.1122H50.6929C50.8175 39.1122 50.9214 39.0222 50.9491 38.9045C51.0461 38.4336 51.0045 37.942 50.8245 37.4919L49.9035 35.2068Z" fill="currentColor"></path>
<path d="M31.9897 32.2431C33.9898 32.2431 35.6113 30.6217 35.6113 28.6215C35.6113 26.6214 33.9898 25 31.9897 25C29.9896 25 28.3682 26.6214 28.3682 28.6215C28.3682 30.6217 29.9896 32.2431 31.9897 32.2431Z" fill="currentColor"></path>
</svg>