<svg width="166" height="171" viewBox="0 0 166 171" fill="none" xmlns="http://www.w3.org/2000/svg">
<path fill-rule="evenodd" clip-rule="evenodd" d="M77.4027 -68.9823C78.7832 -67.6056 81.0216 -67.6056 82.4022 -68.9823C83.7828 -70.3591 83.7828 -72.5912 82.4022 -73.9679C81.0216 -75.3447 78.7832 -75.3447 77.4027 -73.9679C76.0221 -72.5912 76.0221 -70.3591 77.4027 -68.9823ZM99.0665 -25.7754C100.447 -24.3986 102.685 -24.3986 104.066 -25.7754C105.447 -27.1521 105.447 -29.3842 104.066 -30.761C102.685 -32.1377 100.447 -32.1377 99.0665 -30.761C97.6859 -29.3842 97.6859 -27.1521 99.0665 -25.7754ZM77.4022 -47.3768C78.7828 -46.0001 81.0212 -46.0001 82.4017 -47.3768C83.7823 -48.7535 83.7823 -50.9857 82.4017 -52.3624C81.0212 -53.7391 78.7828 -53.7391 77.4022 -52.3624C76.0216 -50.9857 76.0216 -48.7535 77.4022 -47.3768ZM109.898 -14.9707C111.278 -13.594 113.517 -13.594 114.897 -14.9707C116.278 -16.3474 116.278 -18.5795 114.897 -19.9563C113.517 -21.333 111.278 -21.333 109.898 -19.9563C108.517 -18.5795 108.517 -16.3474 109.898 -14.9707ZM66.5691 -58.1777C67.9497 -56.801 70.1881 -56.801 71.5686 -58.1777C72.9492 -59.5545 72.9492 -61.7866 71.5686 -63.1633C70.1881 -64.54 67.9497 -64.54 66.5691 -63.1633C65.1885 -61.7866 65.1885 -59.5545 66.5691 -58.1777ZM77.4022 -25.7756C78.7828 -24.3989 81.0212 -24.3989 82.4017 -25.7756C83.7823 -27.1524 83.7823 -29.3845 82.4017 -30.7612C81.0212 -32.1379 78.7828 -32.1379 77.4022 -30.7612C76.0216 -29.3845 76.0216 -27.1524 77.4022 -25.7756ZM99.0665 -4.1699C100.447 -2.79317 102.685 -2.79317 104.066 -4.1699C105.447 -5.54664 105.447 -7.77876 104.066 -9.15549C102.685 -10.5322 100.447 -10.5322 99.0665 -9.15549C97.6859 -7.77876 97.6859 -5.54664 99.0665 -4.1699ZM55.738 -47.3769C57.1185 -46.0002 59.3569 -46.0002 60.7375 -47.3769C62.1181 -48.7537 62.1181 -50.9858 60.7375 -52.3625C59.3569 -53.7393 57.1185 -53.7393 55.738 -52.3625C54.3574 -50.9858 54.3574 -48.7537 55.738 -47.3769ZM55.738 -25.7754C57.1185 -24.3986 59.3569 -24.3986 60.7375 -25.7754C62.1181 -27.1521 62.1181 -29.3842 60.7375 -30.761C59.3569 -32.1377 57.1185 -32.1377 55.738 -30.761C54.3574 -29.3842 54.3574 -27.1521 55.738 -25.7754ZM49.9063 -36.5762C48.5257 -35.1994 46.2874 -35.1994 44.9068 -36.5762C43.5262 -37.9529 43.5262 -40.185 44.9068 -41.5617C46.2874 -42.9385 48.5257 -42.9385 49.9063 -41.5617C51.2869 -40.185 51.2869 -37.9529 49.9063 -36.5762ZM6.57389 6.63478C5.19332 8.01151 2.95495 8.01152 1.57437 6.63478C0.193795 5.25805 0.193796 3.02592 1.57437 1.64919C2.95495 0.272461 5.19331 0.272453 6.57389 1.64919C7.95447 3.02592 7.95447 5.25805 6.57389 6.63478ZM88.2334 6.63467C89.614 8.0114 91.8523 8.0114 93.2329 6.63467C94.6135 5.25793 94.6135 3.0258 93.2329 1.64907C91.8523 0.272339 89.614 0.272339 88.2334 1.64907C86.8528 3.0258 86.8528 5.25793 88.2334 6.63467ZM49.9044 49.8418C48.5238 51.2185 46.2854 51.2185 44.9049 49.8418C43.5243 48.4651 43.5243 46.233 44.9049 44.8562C46.2854 43.4795 48.5238 43.4795 49.9044 44.8562C51.2849 46.233 51.2849 48.4651 49.9044 49.8418ZM66.5691 -14.9707C67.9497 -13.594 70.1881 -13.594 71.5686 -14.9707C72.9492 -16.3474 72.9492 -18.5795 71.5686 -19.9563C70.1881 -21.333 67.9497 -21.333 66.5691 -19.9563C65.1885 -18.5795 65.1885 -16.3474 66.5691 -14.9707ZM28.2401 28.2366C26.8595 29.6133 24.6212 29.6133 23.2406 28.2366C21.86 26.8599 21.86 24.6277 23.2406 23.251C24.6212 21.8743 26.8595 21.8743 28.2401 23.251C29.6207 24.6277 29.6207 26.8599 28.2401 28.2366ZM109.898 28.2363C111.278 29.6131 113.517 29.6131 114.897 28.2363C116.278 26.8596 116.278 24.6275 114.897 23.2507C113.517 21.874 111.278 21.874 109.898 23.2507C108.517 24.6275 108.517 26.8596 109.898 28.2363ZM71.5686 71.4473C70.1881 72.824 67.9497 72.824 66.5691 71.4473C65.1885 70.0706 65.1885 67.8384 66.5691 66.4617C67.9497 65.085 70.1881 65.085 71.5686 66.4617C72.9492 67.8384 72.9492 70.0706 71.5686 71.4473ZM17.4089 17.4351C16.0284 18.8118 13.79 18.8118 12.4094 17.4351C11.0288 16.0583 11.0288 13.8262 12.4094 12.4495C13.79 11.0728 16.0284 11.0727 17.4089 12.4495C18.7895 13.8262 18.7895 16.0583 17.4089 17.4351ZM99.0665 17.4356C100.447 18.8123 102.685 18.8123 104.066 17.4356C105.447 16.0588 105.447 13.8267 104.066 12.45C102.685 11.0732 100.447 11.0732 99.0665 12.45C97.6859 13.8267 97.6859 16.0588 99.0665 17.4356ZM60.7355 60.6426C59.3549 62.0193 57.1166 62.0193 55.736 60.6426C54.3554 59.2659 54.3554 57.0337 55.736 55.657C57.1166 54.2803 59.3549 54.2803 60.7355 55.657C62.1161 57.0337 62.1161 59.2659 60.7355 60.6426ZM77.4022 -4.17015C78.7828 -2.79341 81.0212 -2.79341 82.4017 -4.17015C83.7823 -5.54688 83.7823 -7.77901 82.4017 -9.15574C81.0212 -10.5325 78.7828 -10.5325 77.4022 -9.15574C76.0216 -7.77901 76.0216 -5.54688 77.4022 -4.17015ZM39.0713 39.037C37.6907 40.4137 35.4523 40.4137 34.0717 39.037C32.6912 37.6603 32.6912 35.4281 34.0717 34.0514C35.4523 32.6747 37.6907 32.6747 39.0713 34.0514C40.4518 35.4281 40.4518 37.6603 39.0713 39.037ZM120.731 39.0371C122.111 40.4139 124.35 40.4139 125.73 39.0371C127.111 37.6604 127.111 35.4283 125.73 34.0515C124.35 32.6748 122.111 32.6748 120.731 34.0515C119.35 35.4283 119.35 37.6604 120.731 39.0371ZM82.4017 82.2476C81.0212 83.6243 78.7828 83.6243 77.4022 82.2476C76.0216 80.8708 76.0216 78.6387 77.4022 77.262C78.7828 75.8853 81.0212 75.8853 82.4017 77.262C83.7823 78.6387 83.7823 80.8708 82.4017 82.2476ZM17.408 -4.16991C16.0274 -2.79317 13.789 -2.79317 12.4085 -4.16991C11.0279 -5.54664 11.0279 -7.77876 12.4085 -9.15549C13.789 -10.5322 16.0274 -10.5322 17.408 -9.15549C18.7886 -7.77876 18.7886 -5.54664 17.408 -4.16991ZM60.7355 39.0371C59.3549 40.4139 57.1166 40.4139 55.736 39.0371C54.3554 37.6604 54.3554 35.4283 55.736 34.0515C57.1166 32.6748 59.3549 32.6748 60.7355 34.0515C62.1161 35.4283 62.1161 37.6604 60.7355 39.0371ZM39.0722 17.4351C37.6917 18.8118 35.4533 18.8118 34.0727 17.4351C32.6921 16.0583 32.6921 13.8262 34.0727 12.4495C35.4533 11.0727 37.6917 11.0727 39.0722 12.4495C40.4528 13.8262 40.4528 16.0583 39.0722 17.4351ZM120.732 17.4356C122.112 18.8123 124.351 18.8123 125.731 17.4356C127.112 16.0588 127.112 13.8267 125.731 12.45C124.351 11.0732 122.112 11.0732 120.732 12.45C119.351 13.8267 119.351 16.0588 120.732 17.4356ZM82.4017 60.6421C81.0212 62.0188 78.7828 62.0188 77.4022 60.6421C76.0217 59.2654 76.0217 57.0332 77.4022 55.6565C78.7828 54.2798 81.0212 54.2798 82.4017 55.6565C83.7823 57.0332 83.7823 59.2654 82.4017 60.6421ZM66.5711 -36.5762C67.9516 -35.1994 70.19 -35.1994 71.5706 -36.5762C72.9512 -37.9529 72.9512 -40.185 71.5706 -41.5617C70.19 -42.9385 67.9516 -42.9385 66.5711 -41.5617C65.1905 -40.185 65.1905 -37.9529 66.5711 -36.5762ZM28.2401 6.63429C26.8595 8.01103 24.6212 8.01103 23.2406 6.63429C21.86 5.25756 21.86 3.02544 23.2406 1.6487C24.6212 0.271973 26.8595 0.271965 28.2401 1.6487C29.6207 3.02544 29.6207 5.25756 28.2401 6.63429ZM109.899 6.63478C111.279 8.01151 113.518 8.01151 114.898 6.63478C116.279 5.25805 116.279 3.02592 114.898 1.64919C113.518 0.272453 111.279 0.272453 109.899 1.64919C108.518 3.02592 108.518 5.25805 109.899 6.63478ZM71.5686 49.8418C70.1881 51.2185 67.9497 51.2185 66.5691 49.8418C65.1885 48.4651 65.1885 46.233 66.5691 44.8562C67.9497 43.4795 70.1881 43.4795 71.5686 44.8562C72.9492 46.233 72.9492 48.4651 71.5686 49.8418ZM88.2334 -14.9709C89.614 -13.5942 91.8523 -13.5942 93.2329 -14.9709C94.6135 -16.3477 94.6135 -18.5798 93.2329 -19.9565C91.8523 -21.3333 89.614 -21.3333 88.2334 -19.9565C86.8528 -18.5798 86.8528 -16.3477 88.2334 -14.9709ZM49.9044 28.2363C48.5238 29.6131 46.2854 29.6131 44.9049 28.2363C43.5243 26.8596 43.5243 24.6275 44.9049 23.2507C46.2854 21.874 48.5238 21.874 49.9044 23.2507C51.285 24.6275 51.285 26.8596 49.9044 28.2363ZM131.564 28.2362C132.944 29.613 135.183 29.613 136.563 28.2362C137.944 26.8595 137.944 24.6274 136.563 23.2506C135.183 21.8739 132.944 21.8739 131.564 23.2506C130.183 24.6274 130.183 26.8595 131.564 28.2362ZM93.2339 71.447C91.8533 72.8238 89.6149 72.8238 88.2344 71.447C86.8538 70.0703 86.8538 67.8382 88.2344 66.4614C89.6149 65.0847 91.8533 65.0847 93.2339 66.4614C94.6144 67.8382 94.6144 70.0703 93.2339 71.447ZM28.2401 -14.9712C26.8595 -13.5944 24.6212 -13.5944 23.2406 -14.9712C21.86 -16.3479 21.86 -18.58 23.2406 -19.9568C24.6212 -21.3335 26.8595 -21.3335 28.2401 -19.9568C29.6207 -18.58 29.6207 -16.3479 28.2401 -14.9712ZM71.5686 28.2363C70.1881 29.6131 67.9497 29.6131 66.5691 28.2363C65.1885 26.8596 65.1885 24.6275 66.5691 23.2508C67.9497 21.874 70.1881 21.874 71.5686 23.2508C72.9492 24.6275 72.9492 26.8596 71.5686 28.2363ZM88.2344 -36.5729C89.6149 -35.1961 91.8533 -35.1961 93.2339 -36.5729C94.6145 -37.9496 94.6144 -40.1817 93.2339 -41.5584C91.8533 -42.9352 89.6149 -42.9352 88.2344 -41.5585C86.8538 -40.1817 86.8538 -37.9496 88.2344 -36.5729ZM49.9063 6.63869C48.5257 8.01543 46.2874 8.01543 44.9068 6.63869C43.5262 5.26196 43.5262 3.02983 44.9068 1.6531C46.2874 0.276367 48.5257 0.27636 49.9063 1.6531C51.2869 3.02983 51.2869 5.26196 49.9063 6.63869ZM131.563 6.63503C132.943 8.01176 135.182 8.01176 136.562 6.63503C137.943 5.25829 137.943 3.02617 136.562 1.64944C135.182 0.272705 132.943 0.272697 131.563 1.64944C130.182 3.02617 130.182 5.25829 131.563 6.63503ZM93.2339 49.8414C91.8533 51.2182 89.6149 51.2182 88.2344 49.8414C86.8538 48.4647 86.8538 46.2326 88.2344 44.8559C89.6149 43.4791 91.8533 43.4791 93.2339 44.8559C94.6144 46.2326 94.6144 48.4647 93.2339 49.8414ZM39.0722 -4.17052C37.6917 -2.79379 35.4533 -2.79379 34.0727 -4.17052C32.6921 -5.54725 32.6921 -7.77938 34.0727 -9.15611C35.4533 -10.5328 37.6917 -10.5328 39.0722 -9.15611C40.4528 -7.77937 40.4528 -5.54725 39.0722 -4.17052ZM120.73 -4.16991C122.11 -2.79317 124.349 -2.79317 125.729 -4.16991C127.11 -5.54664 127.11 -7.77876 125.729 -9.1555C124.349 -10.5322 122.11 -10.5322 120.73 -9.15549C119.349 -7.77876 119.349 -5.54664 120.73 -4.16991ZM82.4017 39.0366C81.0212 40.4134 78.7828 40.4134 77.4022 39.0366C76.0216 37.6599 76.0216 35.4278 77.4022 34.051C78.7828 32.6743 81.0212 32.6743 82.4017 34.051C83.7823 35.4278 83.7823 37.6599 82.4017 39.0366ZM60.7355 17.4356C59.3549 18.8123 57.1166 18.8123 55.736 17.4356C54.3554 16.0588 54.3554 13.8267 55.736 12.45C57.1166 11.0732 59.3549 11.0732 60.7355 12.45C62.1161 13.8267 62.1161 16.0588 60.7355 17.4356ZM142.396 17.4391C143.777 18.8158 146.015 18.8158 147.395 17.4391C148.776 16.0624 148.776 13.8302 147.395 12.4535C146.015 11.0768 143.777 11.0768 142.396 12.4535C141.015 13.8302 141.015 16.0624 142.396 17.4391ZM104.068 60.6465C102.687 62.0232 100.449 62.0232 99.0684 60.6465C97.6879 59.2698 97.6879 57.0376 99.0684 55.6609C100.449 54.2842 102.687 54.2842 104.068 55.6609C105.449 57.0376 105.449 59.2698 104.068 60.6465ZM39.0732 -25.7726C37.6926 -24.3958 35.4543 -24.3958 34.0737 -25.7726C32.6931 -27.1493 32.6931 -29.3814 34.0737 -30.7582C35.4543 -32.1349 37.6926 -32.1349 39.0732 -30.7582C40.4538 -29.3814 40.4538 -27.1493 39.0732 -25.7726ZM120.73 -25.7754C122.11 -24.3986 124.349 -24.3986 125.729 -25.7754C127.11 -27.1521 127.11 -29.3842 125.729 -30.761C124.349 -32.1377 122.11 -32.1377 120.73 -30.761C119.349 -29.3842 119.349 -27.1521 120.73 -25.7754ZM82.4008 17.4351C81.0202 18.8118 78.7818 18.8118 77.4012 17.4351C76.0207 16.0583 76.0207 13.8262 77.4012 12.4495C78.7818 11.0727 81.0202 11.0727 82.4008 12.4495C83.7813 13.8262 83.7813 16.0583 82.4008 17.4351ZM99.0665 -47.3769C100.447 -46.0002 102.685 -46.0002 104.066 -47.3769C105.447 -48.7537 105.447 -50.9858 104.066 -52.3625C102.685 -53.7393 100.447 -53.7393 99.0665 -52.3625C97.6859 -50.9858 97.6859 -48.7537 99.0665 -47.3769ZM60.7375 -4.1699C59.3569 -2.79317 57.1185 -2.79317 55.738 -4.1699C54.3574 -5.54663 54.3574 -7.77876 55.738 -9.15549C57.1185 -10.5322 59.3569 -10.5322 60.7375 -9.15549C62.1181 -7.77876 62.1181 -5.54663 60.7375 -4.1699ZM142.396 -4.16649C143.777 -2.78976 146.015 -2.78976 147.395 -4.16649C148.776 -5.54322 148.776 -7.77535 147.395 -9.15208C146.015 -10.5288 143.777 -10.5288 142.396 -9.15208C141.015 -7.77534 141.015 -5.54322 142.396 -4.16649ZM104.067 39.0371C102.686 40.4139 100.448 40.4139 99.0675 39.0371C97.6869 37.6604 97.6869 35.4283 99.0675 34.0515C100.448 32.6748 102.686 32.6748 104.067 34.0515C105.448 35.4283 105.448 37.6604 104.067 39.0371ZM88.2324 -58.1776C89.613 -56.8009 91.8513 -56.8009 93.2319 -58.1776C94.6125 -59.5543 94.6125 -61.7865 93.2319 -63.1632C91.8513 -64.5399 89.613 -64.5399 88.2324 -63.1632C86.8518 -61.7865 86.8518 -59.5543 88.2324 -58.1776ZM49.9073 -14.9668C48.5267 -13.59 46.2883 -13.59 44.9078 -14.9668C43.5272 -16.3435 43.5272 -18.5756 44.9078 -19.9524C46.2883 -21.3291 48.5267 -21.3291 49.9073 -19.9524C51.2879 -18.5756 51.2879 -16.3435 49.9073 -14.9668ZM131.564 -14.9712C132.944 -13.5944 135.183 -13.5944 136.563 -14.9712C137.944 -16.3479 137.944 -18.58 136.563 -19.9568C135.183 -21.3335 132.944 -21.3335 131.564 -19.9568C130.183 -18.58 130.183 -16.3479 131.564 -14.9712ZM93.2348 28.2394C91.8543 29.6161 89.6159 29.6161 88.2353 28.2394C86.8548 26.8627 86.8548 24.6305 88.2353 23.2538C89.6159 21.8771 91.8543 21.8771 93.2348 23.2538C94.6154 24.6305 94.6154 26.8627 93.2348 28.2394ZM109.898 -36.5762C111.278 -35.1994 113.517 -35.1994 114.897 -36.5762C116.278 -37.9529 116.278 -40.185 114.897 -41.5617C113.517 -42.9385 111.278 -42.9385 109.898 -41.5617C108.517 -40.185 108.517 -37.9529 109.898 -36.5762ZM71.5706 6.63479C70.19 8.01152 67.9516 8.01152 66.5711 6.63479C65.1905 5.25805 65.1905 3.02592 66.5711 1.64919C67.9516 0.272461 70.19 0.272461 71.5706 1.64919C72.9512 3.02592 72.9512 5.25805 71.5706 6.63479ZM153.228 6.63747C154.609 8.0142 156.847 8.0142 158.228 6.63747C159.608 5.26073 159.608 3.02861 158.228 1.65187C156.847 0.275139 154.609 0.275139 153.228 1.65188C151.848 3.02861 151.848 5.26073 153.228 6.63747ZM114.897 49.8418C113.517 51.2185 111.278 51.2185 109.898 49.8418C108.517 48.4651 108.517 46.233 109.898 44.8562C111.278 43.4795 113.517 43.4795 114.897 44.8562C116.278 46.233 116.278 48.4651 114.897 49.8418ZM163.645 18.0175C165.025 19.3942 167.264 19.3942 168.644 18.0175C170.025 16.6407 170.025 14.4086 168.644 13.0319C167.264 11.6552 165.025 11.6552 163.645 13.0319C162.264 14.4086 162.264 16.6407 163.645 18.0175ZM196.142 72.0289C197.522 73.4057 199.761 73.4057 201.141 72.0289C202.522 70.6522 202.522 68.4201 201.141 67.0434C199.761 65.6666 197.522 65.6666 196.142 67.0434C194.761 68.4201 194.761 70.6522 196.142 72.0289ZM152.811 28.8219C154.192 30.1987 156.43 30.1987 157.811 28.8219C159.191 27.4452 159.191 25.2131 157.811 23.8363C156.43 22.4596 154.192 22.4596 152.811 23.8363C151.431 25.2131 151.431 27.4452 152.811 28.8219ZM163.644 61.224C165.025 62.6008 167.263 62.6008 168.644 61.224C170.025 59.8473 170.025 57.6152 168.644 56.2384C167.263 54.8617 165.025 54.8617 163.644 56.2384C162.264 57.6152 162.264 59.8473 163.644 61.224ZM185.31 82.8336C186.69 84.2104 188.929 84.2104 190.309 82.8336C191.69 81.4569 191.69 79.2248 190.309 77.848C188.929 76.4713 186.69 76.4713 185.31 77.848C183.929 79.2248 183.929 81.4569 185.31 82.8336ZM141.979 39.6266C143.36 41.0033 145.598 41.0033 146.979 39.6266C148.359 38.2499 148.359 36.0177 146.979 34.641C145.598 33.2643 143.36 33.2643 141.979 34.641C140.599 36.0177 140.599 38.2499 141.979 39.6266ZM163.645 82.8296C165.026 84.2063 167.264 84.2063 168.645 82.8296C170.025 81.4529 170.025 79.2207 168.645 77.844C167.264 76.4673 165.026 76.4673 163.645 77.844C162.265 79.2207 162.265 81.4529 163.645 82.8296ZM141.979 61.2243C143.36 62.601 145.598 62.601 146.979 61.2243C148.359 59.8475 148.359 57.6154 146.979 56.2387C145.598 54.8619 143.36 54.8619 141.979 56.2387C140.599 57.6154 140.599 59.8475 141.979 61.2243ZM152.812 72.03C154.193 73.4068 156.431 73.4068 157.812 72.03C159.192 70.6533 159.192 68.4212 157.812 67.0444C156.431 65.6677 154.193 65.6677 152.812 67.0444C151.432 68.4212 151.432 70.6533 152.812 72.03ZM174.477 93.6344C175.857 95.0112 178.095 95.0112 179.476 93.6344C180.857 92.2577 180.857 90.0256 179.476 88.6488C178.095 87.2721 175.857 87.2721 174.477 88.6488C173.096 90.0256 173.096 92.2577 174.477 93.6344ZM136.148 50.4274C134.767 51.8041 132.529 51.8041 131.148 50.4274C129.767 49.0507 129.767 46.8185 131.148 45.4418C132.529 44.0651 134.767 44.0651 136.148 45.4418C137.528 46.8185 137.528 49.0507 136.148 50.4274ZM92.818 93.6344C91.4375 95.0112 89.1991 95.0112 87.8185 93.6344C86.4379 92.2577 86.4379 90.0256 87.8185 88.6488C89.1991 87.2721 91.4375 87.2721 92.818 88.6488C94.1986 90.0256 94.1986 92.2577 92.818 93.6344ZM136.147 136.845C134.766 138.222 132.528 138.222 131.147 136.845C129.766 135.469 129.766 133.236 131.147 131.86C132.528 130.483 134.766 130.483 136.147 131.86C137.527 133.236 137.527 135.469 136.147 136.845ZM114.482 115.236C113.102 116.613 110.863 116.613 109.483 115.236C108.102 113.86 108.102 111.627 109.483 110.251C110.863 108.874 113.102 108.874 114.482 110.251C115.863 111.627 115.863 113.86 114.482 115.236ZM196.141 115.24C197.521 116.617 199.76 116.617 201.14 115.24C202.521 113.863 202.521 111.631 201.14 110.254C199.76 108.878 197.521 108.878 196.141 110.254C194.76 111.631 194.76 113.863 196.141 115.24ZM157.813 158.448C156.432 159.825 154.194 159.825 152.813 158.448C151.433 157.071 151.433 154.839 152.813 153.462C154.194 152.086 156.432 152.086 157.813 153.462C159.193 154.839 159.193 157.071 157.813 158.448ZM103.651 104.436C102.271 105.813 100.032 105.813 98.6516 104.436C97.271 103.059 97.271 100.827 98.6516 99.4503C100.032 98.0736 102.271 98.0736 103.651 99.4503C105.032 100.827 105.032 103.059 103.651 104.436ZM185.31 104.439C186.69 105.816 188.929 105.816 190.309 104.439C191.69 103.062 191.69 100.83 190.309 99.4535C188.929 98.0768 186.69 98.0768 185.31 99.4535C183.929 100.83 183.929 103.062 185.31 104.439ZM146.98 147.642C145.599 149.019 143.361 149.019 141.98 147.642C140.6 146.266 140.6 144.033 141.98 142.657C143.361 141.28 145.599 141.28 146.98 142.657C148.36 144.033 148.36 146.266 146.98 147.642ZM125.313 126.037C123.933 127.413 121.695 127.413 120.314 126.037C118.933 124.66 118.933 122.428 120.314 121.051C121.695 119.674 123.933 119.674 125.313 121.051C126.694 122.428 126.694 124.66 125.313 126.037ZM206.974 126.038C208.354 127.414 210.593 127.414 211.973 126.038C213.354 124.661 213.354 122.429 211.973 121.052C210.593 119.675 208.354 119.675 206.974 121.052C205.593 122.429 205.593 124.661 206.974 126.038ZM168.644 169.248C167.263 170.625 165.025 170.625 163.644 169.248C162.264 167.872 162.264 165.639 163.644 164.263C165.025 162.886 167.263 162.886 168.644 164.263C170.025 165.639 170.025 167.872 168.644 169.248ZM103.651 82.8303C102.271 84.2071 100.032 84.2071 98.6516 82.8303C97.271 81.4536 97.271 79.2215 98.6516 77.8448C100.032 76.468 102.271 76.468 103.651 77.8448C105.032 79.2215 105.032 81.4536 103.651 82.8303ZM146.98 126.037C145.599 127.413 143.361 127.413 141.98 126.037C140.6 124.66 140.6 122.428 141.98 121.051C143.361 119.674 145.599 119.674 146.98 121.051C148.36 122.428 148.36 124.66 146.98 126.037ZM125.315 104.435C123.935 105.811 121.696 105.811 120.316 104.435C118.935 103.058 118.935 100.826 120.316 99.4491C121.696 98.0724 123.935 98.0724 125.315 99.4491C126.696 100.826 126.696 103.058 125.315 104.435ZM206.973 104.435C208.354 105.812 210.592 105.812 211.972 104.435C213.353 103.058 213.353 100.826 211.972 99.4496C210.592 98.0729 208.354 98.0729 206.973 99.4496C205.592 100.826 205.592 103.058 206.973 104.435ZM168.644 147.643C167.263 149.019 165.025 149.019 163.644 147.643C162.264 146.266 162.264 144.034 163.644 142.657C165.025 141.28 167.263 141.28 168.644 142.657C170.025 144.034 170.025 146.266 168.644 147.643ZM152.812 50.4245C154.193 51.8012 156.431 51.8012 157.812 50.4245C159.192 49.0477 159.192 46.8156 157.812 45.4389C156.431 44.0621 154.193 44.0621 152.812 45.4389C151.432 46.8156 151.432 49.0477 152.812 50.4245ZM114.482 93.6351C113.102 95.0119 110.863 95.0119 109.483 93.6351C108.102 92.2584 108.102 90.0263 109.483 88.6496C110.863 87.2728 113.102 87.2728 114.482 88.6496C115.863 90.0263 115.863 92.2584 114.482 93.6351ZM196.142 93.6344C197.522 95.0112 199.761 95.0112 201.141 93.6344C202.522 92.2577 202.522 90.0256 201.141 88.6488C199.761 87.2721 197.522 87.2721 196.142 88.6488C194.761 90.0256 194.761 92.2577 196.142 93.6344ZM157.813 136.842C156.432 138.219 154.194 138.219 152.813 136.842C151.433 135.466 151.433 133.233 152.813 131.857C154.194 130.48 156.432 130.48 157.813 131.857C159.193 133.233 159.193 135.466 157.813 136.842ZM174.476 72.0288C175.856 73.4056 178.095 73.4056 179.475 72.0288C180.856 70.6521 180.856 68.42 179.475 67.0432C178.095 65.6665 175.856 65.6665 174.476 67.0432C173.095 68.42 173.095 70.6521 174.476 72.0288ZM136.147 115.239C134.766 116.615 132.528 116.615 131.147 115.239C129.766 113.862 129.766 111.63 131.147 110.253C132.528 108.876 134.766 108.876 136.147 110.253C137.527 111.63 137.527 113.862 136.147 115.239ZM217.806 115.236C219.187 116.613 221.425 116.613 222.806 115.236C224.186 113.859 224.186 111.627 222.806 110.25C221.425 108.874 219.187 108.874 217.806 110.25C216.425 111.627 216.425 113.859 217.806 115.236ZM179.476 158.447C178.095 159.823 175.857 159.823 174.477 158.447C173.096 157.07 173.096 154.838 174.477 153.461C175.857 152.084 178.095 152.084 179.476 153.461C180.857 154.838 180.857 157.07 179.476 158.447ZM114.482 72.0296C113.102 73.4063 110.863 73.4063 109.483 72.0296C108.102 70.6528 108.102 68.4207 109.483 67.044C110.863 65.6672 113.102 65.6672 114.482 67.044C115.863 68.4207 115.863 70.6528 114.482 72.0296ZM157.812 115.237C156.431 116.613 154.193 116.613 152.812 115.237C151.432 113.86 151.432 111.628 152.812 110.251C154.193 108.874 156.431 108.874 157.812 110.251C159.192 111.628 159.192 113.86 157.812 115.237ZM174.478 50.4268C175.858 51.8035 178.096 51.8035 179.477 50.4268C180.858 49.05 180.858 46.8179 179.477 45.4412C178.096 44.0645 175.858 44.0645 174.478 45.4412C173.097 46.8179 173.097 49.05 174.478 50.4268ZM136.149 93.6383C134.768 95.0151 132.53 95.0151 131.149 93.6383C129.768 92.2616 129.768 90.0295 131.149 88.6527C132.53 87.276 134.768 87.276 136.149 88.6527C137.529 90.0295 137.529 92.2616 136.149 93.6383ZM217.806 93.6348C219.187 95.0115 221.425 95.0115 222.806 93.6348C224.186 92.2581 224.186 90.0259 222.806 88.6492C221.425 87.2725 219.187 87.2725 217.806 88.6492C216.425 90.0259 216.425 92.2581 217.806 93.6348ZM179.476 136.841C178.095 138.218 175.857 138.218 174.477 136.841C173.096 135.464 173.096 133.232 174.477 131.855C175.857 130.479 178.095 130.479 179.476 131.855C180.857 133.232 180.857 135.464 179.476 136.841ZM163.644 39.6228C165.025 40.9996 167.263 40.9996 168.644 39.6228C170.025 38.2461 170.025 36.014 168.644 34.6372C167.263 33.2605 165.025 33.2605 163.644 34.6372C162.264 36.014 162.264 38.2461 163.644 39.6228ZM125.314 82.8292C123.934 84.206 121.695 84.206 120.315 82.8292C118.934 81.4525 118.934 79.2204 120.315 77.8436C121.695 76.4669 123.934 76.4669 125.314 77.8436C126.695 79.2204 126.695 81.4525 125.314 82.8292ZM206.973 82.8308C208.354 84.2076 210.592 84.2076 211.972 82.8308C213.353 81.4541 213.353 79.222 211.972 77.8452C210.592 76.4685 208.354 76.4685 206.973 77.8452C205.592 79.222 205.592 81.4541 206.973 82.8308ZM168.643 126.037C167.262 127.414 165.024 127.414 163.643 126.037C162.263 124.66 162.263 122.428 163.643 121.052C165.024 119.675 167.262 119.675 168.643 121.052C170.024 122.428 170.024 124.66 168.643 126.037ZM185.31 61.2282C186.69 62.6049 188.929 62.6049 190.309 61.2282C191.69 59.8514 191.69 57.6193 190.309 56.2426C188.929 54.8658 186.69 54.8658 185.31 56.2426C183.929 57.6193 183.929 59.8514 185.31 61.2282ZM146.98 104.435C145.599 105.812 143.361 105.812 141.98 104.435C140.6 103.058 140.6 100.826 141.98 99.4496C143.361 98.0729 145.599 98.0729 146.98 99.4496C148.36 100.826 148.36 103.058 146.98 104.435ZM228.639 104.439C230.02 105.815 232.258 105.815 233.639 104.439C235.019 103.062 235.019 100.83 233.639 99.4531C232.258 98.0764 230.02 98.0764 228.639 99.4532C227.259 100.83 227.259 103.062 228.639 104.439ZM190.31 147.646C188.93 149.023 186.691 149.023 185.311 147.646C183.93 146.269 183.93 144.037 185.311 142.661C186.691 141.284 188.93 141.284 190.31 142.661C191.691 144.037 191.691 146.269 190.31 147.646ZM125.316 61.2272C123.936 62.6039 121.697 62.6039 120.317 61.2272C118.936 59.8505 118.936 57.6183 120.317 56.2416C121.697 54.8649 123.936 54.8649 125.316 56.2416C126.697 57.6183 126.697 59.8505 125.316 61.2272ZM206.973 61.2252C208.354 62.602 210.592 62.602 211.972 61.2252C213.353 59.8485 213.353 57.6164 211.972 56.2396C210.592 54.8629 208.354 54.8629 206.973 56.2396C205.592 57.6164 205.592 59.8485 206.973 61.2252ZM168.643 104.436C167.262 105.813 165.024 105.813 163.643 104.436C162.263 103.059 162.263 100.827 163.643 99.4503C165.024 98.0736 167.262 98.0736 168.643 99.4503C170.024 100.827 170.024 103.059 168.643 104.436ZM185.309 39.6266C186.689 41.0033 188.928 41.0033 190.308 39.6266C191.689 38.2499 191.689 36.0177 190.308 34.641C188.928 33.2643 186.689 33.2643 185.309 34.641C183.928 36.0177 183.928 38.2499 185.309 39.6266ZM146.979 82.8297C145.598 84.2065 143.36 84.2065 141.979 82.8297C140.599 81.453 140.599 79.2209 141.979 77.8441C143.36 76.4674 145.598 76.4674 146.979 77.8441C148.359 79.2209 148.359 81.453 146.979 82.8297ZM228.637 82.8331C230.018 84.2099 232.256 84.2099 233.637 82.8331C235.017 81.4564 235.017 79.2243 233.637 77.8476C232.256 76.4708 230.018 76.4708 228.637 77.8476C227.257 79.2243 227.257 81.4564 228.637 82.8331ZM190.309 126.041C188.929 127.417 186.69 127.417 185.31 126.041C183.929 124.664 183.929 122.432 185.31 121.055C186.69 119.678 188.929 119.678 190.309 121.055C191.69 122.432 191.69 124.664 190.309 126.041ZM174.476 28.822C175.856 30.1988 178.094 30.1988 179.475 28.822C180.856 27.4453 180.856 25.2132 179.475 23.8364C178.094 22.4597 175.856 22.4597 174.476 23.8364C173.095 25.2132 173.095 27.4453 174.476 28.822ZM136.148 72.0329C134.767 73.4096 132.529 73.4096 131.148 72.0329C129.767 70.6561 129.767 68.424 131.148 67.0473C132.529 65.6705 134.767 65.6705 136.148 67.0473C137.528 68.424 137.528 70.6561 136.148 72.0329ZM217.806 72.0292C219.187 73.4059 221.425 73.4059 222.806 72.0292C224.186 70.6525 224.186 68.4203 222.806 67.0436C221.425 65.6669 219.187 65.6669 217.806 67.0436C216.425 68.4203 216.425 70.6525 217.806 72.0292ZM179.478 115.239C178.097 116.616 175.859 116.616 174.478 115.239C173.098 113.862 173.098 111.63 174.478 110.254C175.859 108.877 178.097 108.877 179.478 110.254C180.859 111.63 180.859 113.862 179.478 115.239ZM196.142 50.4248C197.522 51.8016 199.761 51.8016 201.141 50.4248C202.522 49.0481 202.522 46.816 201.141 45.4392C199.761 44.0625 197.522 44.0625 196.142 45.4392C194.761 46.816 194.761 49.0481 196.142 50.4248ZM157.812 93.6355C156.431 95.0123 154.193 95.0123 152.812 93.6355C151.432 92.2588 151.432 90.0267 152.812 88.6499C154.193 87.2732 156.431 87.2732 157.812 88.6499C159.192 90.0267 159.192 92.2588 157.812 93.6355ZM239.47 93.6372C240.851 95.014 243.089 95.014 244.47 93.6372C245.85 92.2605 245.85 90.0284 244.47 88.6516C243.089 87.2749 240.851 87.2749 239.47 88.6516C238.09 90.0284 238.09 92.2605 239.47 93.6372ZM201.14 136.845C199.76 138.222 197.521 138.222 196.141 136.845C194.76 135.469 194.76 133.236 196.141 131.86C197.521 130.483 199.76 130.483 201.14 131.86C202.521 133.236 202.521 135.469 201.14 136.845Z" fill="url(#paint0_linear)"/>
<defs>
<linearGradient id="paint0_linear" x1="123.022" y1="-75.0005" x2="123.022" y2="170.281" gradientUnits="userSpaceOnUse">
<stop stop-color="#D3E2F0"/>
<stop offset="1" stop-color="#EFF7FF" stop-opacity="0"/>
</linearGradient>
</defs>
</svg>
