<?xml version="1.0" encoding="utf-8"?>
<!-- Generator: Adobe Illustrator 25.0.1, SVG Export Plug-In . SVG Version: 6.00 Build 0)  -->
<svg version="1.0" id="katman_1" xmlns="http://www.w3.org/2000/svg" xmlns:xlink="http://www.w3.org/1999/xlink" x="0px" y="0px"
	 viewBox="0 0 800 600" style="enable-background:new 0 0 800 600;" xml:space="preserve">
<style type="text/css">
	.st0{clip-path:url(#SVGID_2_);fill-rule:evenodd;clip-rule:evenodd;fill:#FF4F27;}
</style>
<g>
	<g>
		<defs>
			<rect id="SVGID_1_" x="75" y="210.7" width="649" height="178.6"/>
		</defs>
		<clipPath id="SVGID_2_">
			<use xlink:href="#SVGID_1_"  style="overflow:visible;"/>
		</clipPath>
		<path class="st0" d="M159.1,211c1.7-0.2,3.4-0.3,5.2-0.3h0.2c5.3,0,10.6,1.1,15.4,3.3c2.6,1.2,5,3,7.4,4.7l0.3,0.2
			c1.6,1.1,1.4,1.5,0.2,3c-0.3,0.4-0.6,0.7-0.9,1l-2.2,2.2c-4.4,4.4-8.9,8.9-13.3,13.3c-1.1,1.1-2.3,2.3-3.5,3.4
			c-1.2,1.1-2.4,2.3-3.6,3.5c-1.5,1.5-3,3-4.5,4.6c-1.2,1.2-2.4,2.4-3.6,3.6c-0.9,0.9-1.7,1.7-2.6,2.6c-1.1,1.1-2.3,2.2-3.3,3.3
			c-1.5,1.5-3,3.1-4.5,4.6c-1.7,1.8-3.4,3.6-5.1,5.3c-1.3,1.3-2.6,2.6-3.9,3.8c-1.2,1.2-2.4,2.3-3.6,3.6c-1.4,1.5-2.9,2.9-4.3,4.4
			c-1.2,1.3-2.5,2.6-3.7,3.9c-1.1,1.1-2.2,2.3-3.4,3.4c-1.3,1.3-2.6,2.6-3.9,3.9c-1.4,1.4-2.8,2.9-4.1,4.3c-1,1.1-2.1,2.2-3.1,3.3
			c-0.6,0.6-1.2,1.2-1.8,1.7c-0.6,0.6-1.1,1.1-1.7,1.7l-3.4,3.6c-2.6,2.7-5.3,5.5-7.9,8.2l-2.7,2.7l-3,3.1l-1.7,1.8l-0.1,0.1
			c-0.2,0.2-0.4,0.5-0.7,0.7c-1.6,1.3-2.5,1.3-3.7-0.4l-0.3-0.4c-1.7-2.3-3.3-4.7-4.6-7.3c-2.5-5.1-4.2-10.4-4-14.5
			c0.1-10.8,2.9-18.9,8.8-25.8c0.9-1,1.9-2,2.9-3c0.5-0.5,1-1,1.5-1.5c0.9-0.9,1.8-1.8,2.6-2.8c1.6-1.6,3.2-3.3,4.8-5
			c1.9-1.9,3.8-3.8,5.7-5.7c1.4-1.4,2.7-2.7,4.1-4c1-1,2-2,3-3c2.4-2.4,4.8-4.9,7.3-7.3c3.1-3,6.2-6.1,9.3-9.1
			c1.5-1.5,3-3.1,4.6-4.6c2.7-2.7,5.3-5.4,8-8C143.7,215.4,150.8,212,159.1,211L159.1,211z M192,248.5c3.2-3.8,7.4-5.3,12.2-5.5
			c0.3,0,0.5,0,0.8,0c5.1,0,9.3,1.9,13,5.7c7.5,7.7,15.1,15.2,22.7,22.8c5.2,5.1,6,6.2,7.7,8.8c4.6,7,5.6,13.5,5.8,15.2
			c0.1,1,0.6,4.5,0,9.2c-0.7,6.1-2.8,12-6.2,17.2c-1.2,1.7-2.8,3.6-6.1,7.1c-2.7,2.8-5.4,5.6-8.2,8.4c-1.5,1.5-3,2.9-4.5,4.4
			c-1.3,1.2-2.5,2.4-3.7,3.6c-1.7,1.6-3.3,3.3-5,5l-2.3,2.3c-2.7,2.6-5.3,5.3-8,7.9l-3.7,3.7c-1.6,1.6-3.1,3.2-4.7,4.7
			c-1.1,1.1-2.3,2.3-3.4,3.4c-2.6,2.7-5.3,5.4-8.1,7.9c-5.5,4.8-11.9,7.9-19.4,8.7c-1.9,0.2-3.7,0.3-5.5,0.3h-0.1
			c-5.4,0-10.6-1-15.7-3.3c-2.5-1.2-4.7-2.8-7-4.3l-0.7-0.5c-1.4-1-1.4-1.8-0.2-3.1c1.4-1.5,2.9-3,4.4-4.5c1-1,2-2,3-3
			c0.8-0.8,1.6-1.6,2.4-2.4c2.1-2.1,4.3-4.1,6.4-6.2l1.5-1.5c0.1-0.1,0.2-0.2,0.3-0.3c0.1-0.1,0.3-0.2,0.4-0.3
			c0.8-0.8,1.6-1.7,2.5-2.6c1.6-1.7,3.2-3.3,4.8-5c1.4-1.4,2.8-2.8,4.3-4.2c0.9-0.9,1.8-1.8,2.7-2.7c1-1.1,2.1-2.1,3.1-3.2
			c0.2-0.2,0.4-0.5,0.7-0.7c0.3-0.3,0.5-0.6,0.8-0.8c0.5-0.5,0.9-0.9,1.4-1.4c2.7-2.7,5.3-5.4,8-8c1.3-1.3,2.6-2.5,3.9-3.8
			c1.2-1.1,2.3-2.2,3.5-3.3l2.6-2.6c2.6-2.5,5.2-5,7.7-7.7c2.9-3,4.3-6.9,4.8-11c0.6-4.9-0.8-9.3-3.4-13.4c-1.4-2.3-3.3-2.5-5.2-0.6
			c-3,2.9-5.9,5.7-8.9,8.6l-4.6,4.5l-3,2.9c-3.8,3.7-7.6,7.3-11.3,11c-1.4,1.4-2.8,2.7-4.3,4.1c-2.1,2-4.2,4-6.2,6
			c-2.3,2.2-4.5,4.5-6.8,6.7c-2,1.9-3.9,3.9-5.9,5.8c-1.3,1.3-2.6,2.6-4,3.8c-0.8,0.8-1.6,1.6-2.4,2.3c-2.1,2-4.2,4-6.3,6l-2.9,2.8
			c-1.7,1.6-3.8,2.5-6,3.1c-3,0.9-6,0.8-9.1,0.3c-3.2-0.6-5.8-2.1-8.1-4.4l-4.7-4.7c-2.2-2.1-4.3-4.3-6.5-6.4
			c-1.5-1.5-1.5-1.7,0-3.2c5.7-5.7,11.4-11.4,17.1-17l6-6l10.5-10.4l7-7l2.9-2.9c2.2-2.2,4.3-4.3,6.6-6.5c1.2-1.2,2.4-2.3,3.6-3.5
			c1.4-1.4,2.9-2.7,4.3-4.1c1.4-1.4,2.7-2.7,4.1-4.1c1.1-1.1,2.2-2.3,3.3-3.4c1.4-1.4,2.8-2.8,4.3-4.2l2.9-2.9
			c1.2-1.1,2.3-2.3,3.4-3.4c1.7-1.7,3.4-3.4,5.2-5.1c1.9-1.9,3.8-3.7,5.8-5.6c1-0.9,1.9-1.9,2.9-2.8
			C191.6,248.9,191.8,248.8,192,248.5L192,248.5z M294.5,283.2c0,2.5,1.4,4.5,4.1,6c2.8,1.4,6.1,2.7,10.1,3.7c4,1.1,7.9,2.3,12,3.7
			c4,1.4,7.5,3.9,10.2,7.1c2.7,3.4,4.1,7.6,4.1,12.7c0,7.2-2.8,12.9-8.3,17c-5.6,4.1-12.6,6.2-21,6.2c-7.4,0-13.8-1.6-19.1-4.7
			c-5.3-3.1-9.2-7.4-11.6-12.9l14-8.1c2.6,7.2,8.2,10.8,16.7,10.8c8.5,0,12.8-2.8,12.8-8.4c0-2.4-1.4-4.3-4.1-5.9
			c-2.8-1.5-6.1-2.8-10.1-3.8c-4-1.1-8-2.3-12-3.7c-4-1.3-7.5-3.8-10.1-7c-2.8-3.3-4.1-7.4-4.1-12.4c0-6.9,2.6-12.5,7.9-16.7
			c5.3-4.2,11.8-6.3,19.7-6.3c6.2,0,11.7,1.4,16.6,4.1c4.8,2.7,8.7,6.7,11.2,11.5l-13.7,7.7c-2.6-5.7-7.3-8.6-14.1-8.6
			c-3.1,0-5.7,0.7-7.8,2C295.5,278.6,294.5,280.6,294.5,283.2L294.5,283.2z M435.9,262.4h17.2l-23.6,75.2h-15.9l-15.6-50.7
			l-15.8,50.7h-15.9l-23.6-75.2h17.1l14.6,51.9l15.8-51.9h15.5l15.7,51.9L435.9,262.4z M480.5,248.1c-2,2-4.4,3-7.2,3
			c-2.8,0-5.3-1-7.3-3.1c-2-2.1-3.1-4.5-3.1-7.3c0-2.8,1-5.3,3-7.3c2-2,4.5-3.1,7.4-3.1c2.9,0,5.3,1,7.4,3.1c2,2,3,4.5,3,7.3
			C483.6,243.6,482.6,246,480.5,248.1L480.5,248.1z M481.4,337.6v-75.2h-16.3v75.2H481.4z M542.8,260.4c10.3,0,19.2,3.8,26.5,11.5
			c7.3,7.7,11,17,11,28.1c0,11.1-3.7,20.5-11,28.1c-7.3,7.6-16.1,11.4-26.5,11.4c-11.4,0-20.2-4.2-26.3-12.6v40.8h-16.2V262.4h16.3
			v10.8C522.5,264.7,531.3,260.4,542.8,260.4L542.8,260.4z M523.2,317.3c4.5,4.5,10.2,6.8,17,6.8c6.8,0,12.5-2.3,17-6.9
			c4.5-4.6,6.8-10.3,6.8-17.2c0-6.9-2.3-12.7-6.8-17.2c-4.5-4.6-10.2-6.8-17-6.8c-6.8,0-12.5,2.3-17,6.8c-4.5,4.6-6.8,10.3-6.8,17.2
			C516.4,306.9,518.7,312.7,523.2,317.3L523.2,317.3z M607.8,306.9c1.2,5.7,4,10.1,8.3,13.2c4.3,3.1,9.6,4.6,15.8,4.6
			c8.6,0,15.1-3.1,19.4-9.3l13.4,7.8c-7.4,10.9-18.4,16.4-33,16.4c-12.2,0-22.1-3.7-29.7-11.2c-7.5-7.5-11.3-16.9-11.3-28.4
			c0-11.2,3.7-20.7,11.1-28.2c7.4-7.6,17-11.4,28.6-11.4c11,0,20.1,3.9,27.2,11.6c7.1,7.7,10.6,17.1,10.6,28.1c0,1.7-0.2,4-0.6,6.8
			H607.8z M607.6,293.7h44.2c-1.1-6.1-3.6-10.7-7.6-13.8c-4-3.1-8.6-4.7-13.9-4.7c-6,0-11.1,1.6-15.1,5
			C611.3,283.5,608.7,288,607.6,293.7L607.6,293.7z M698,322.1v2h-6.7v19.7h-2.2v-19.7h-6.7v-2H698z M721,322.1v21.8h-2.2v-18.5
			l-7.6,12.8h-0.3l-7.6-12.8v18.5h-2.2v-21.8h2.7l7.3,12.1l7.3-12.1H721z M721,322.1"/>
	</g>
</g>
</svg>
