<?xml version="1.0" encoding="utf-8"?>
<!-- Generator: Adobe Illustrator 26.0.3, SVG Export Plug-In . SVG Version: 6.00 Build 0)  -->
<svg version="1.0" id="katman_1" xmlns="http://www.w3.org/2000/svg" xmlns:xlink="http://www.w3.org/1999/xlink" x="0px" y="0px"
	 viewBox="0 0 600 450" style="enable-background:new 0 0 600 450;" xml:space="preserve">
<style type="text/css">
	.st0{fill:#51529F;}
	.st1{fill:#5DC0EE;}
</style>
<path class="st0" d="M118,188c8.5-15.3,30.2-15.3,38.8,0c0,0,0.8,1.3,1.2,2.2c3.5,7.6,0,12.8-3.8,21.1c-1.9,4.3-4.6,8.2-7.5,12.2
	c-0.8,1.1-1.6,2.1-2.4,3.2c-2.2,2.9-4.5,6-6.4,9.1c-5.6,8.7-9.4,18.5-6.1,31.5c1.6,6.4,4.4,10.8,7.5,13.8h-34.8
	c-17.1,0-27.8-18.7-19.4-33.8L118,188z"/>
<path class="st1" d="M180.6,278.7c-3,1.6-6.4,2.5-10.1,2.5h-18.1c-1.8,0-3.7-0.2-5.3-1.1c-3.3-1.9-7.5-5.8-9.6-14
	c-2.8-11.1,0.3-19.4,5.4-27.3c1.9-2.9,4-5.7,6.1-8.6c0.8-1.1,1.7-2.2,2.5-3.4c3-4.1,5.9-8.4,8.1-13.2c2.1-4.7,3.4-9.2,4-13.3
	l26.2,47.1c6.3,11.3,1.8,24.7-8,30.6C181.4,278.2,181,278.4,180.6,278.7z"/>
<path class="st0" d="M266.3,259.1h12.4l-22.4-58.8H243l-22.6,58.8h12.1l4.9-13.4h23.9L266.3,259.1z M249.4,213l8.1,22.2h-16.3
	L249.4,213z M296.4,259.1v-40.8h-11v40.8H296.4z M284.1,204.9c0,3.7,3.1,6.7,6.8,6.7c3.8,0,6.8-3.1,6.8-6.7c0-3.8-3-6.9-6.8-6.9
	C287.2,198,284.1,201.1,284.1,204.9z M333.1,218.1c-0.8-0.1-1.7-0.2-2.6-0.2c-3.5,0-9.1,1-11.6,6.4v-6.1h-10.7v40.8h11v-18.7
	c0-8.8,4.9-11.5,10.5-11.5c1,0,2.1,0.1,3.3,0.3V218.1z M351.9,259.1v-23.9c0-4.5,2.8-8,7.6-8c5,0,7.2,3.3,7.2,7.7v24.2h10.9v-23.9
	c0-4.4,2.8-8,7.5-8c5.1,0,7.2,3.3,7.2,7.7v24.2h10.7v-26.5c0-11-7.2-15.5-14.8-15.5c-5.4,0-9.7,1.8-12.9,6.8
	c-2.1-4.4-6.6-6.8-12.1-6.8c-4.5,0-9.7,2.2-11.9,6.1v-5h-10.5v40.8H351.9z M422.4,234c0.2-3.7,3.4-8,9.1-8c6.3,0,9,4,9.1,8H422.4z
	 M441.8,244.7c-1.3,3.6-4.1,6.2-9.3,6.2c-5.5,0-10-3.9-10.3-9.3h29.2c0-0.2,0.2-1.8,0.2-3.4c0-13.1-7.5-21.2-20.2-21.2
	c-10.5,0-20.1,8.5-20.1,21.5c0,13.8,9.9,21.8,21.1,21.8c10,0,16.5-5.9,18.6-12.9L441.8,244.7z M468.3,234c0.2-3.7,3.4-8,9.1-8
	c6.3,0,9,4,9.1,8H468.3z M487.6,244.7c-1.3,3.6-4.1,6.2-9.3,6.2c-5.5,0-10-3.9-10.3-9.3h29.2c0-0.2,0.2-1.8,0.2-3.4
	c0-13.1-7.5-21.2-20.2-21.2c-10.5,0-20.1,8.5-20.1,21.5c0,13.8,9.9,21.8,21.1,21.8c10,0,16.5-5.9,18.6-12.9L487.6,244.7z
	 M519.7,206.1h-10v5.7c0,3.7-2,6.5-6.3,6.5h-2.1v9.8h7.4v19c0,7.9,5,12.6,12.9,12.6c3.2,0,5.2-0.6,6.2-1v-9.1
	c-0.6,0.2-2.1,0.3-3.4,0.3c-3.2,0-4.8-1.2-4.8-4.7v-17.1h8.2v-9.8h-8.2V206.1z"/>
</svg>
